<?xml version="1.0" encoding="utf-8"?>
<!-- Generator: Adobe Illustrator 20.0.0, SVG Export Plug-In . SVG Version: 6.00 Build 0)  -->
<svg version="1.1" id="Layer_1" xmlns="http://www.w3.org/2000/svg" xmlns:xlink="http://www.w3.org/1999/xlink" x="0px" y="0px"
	 viewBox="0 0 193.6 62.6" style="enable-background:new 0 0 193.6 62.6;" xml:space="preserve">
<style type="text/css">
	.st0{fill:#FFFFFF;}
	.st1{fill:#E21F4A;}
</style>
<path class="st0" d="M74,15.8c-3.3,0-6.6,0-9.9,0c-1,0-1.9,0.8-1.9,1.9c0,4.5,0,9.1,0,13.6c0,1-0.8,1.9-1.9,1.9
	c-1,0-1.9-0.8-1.9-1.9c0-4.5,0-9.1,0-13.6c0-1-0.8-1.9-1.9-1.9c-9.1,0-26.1,0-27.4,0c-0.2,0-4.6,0-6.9,0c-1.4,0-2.8,0-4.2,0
	c-1.3,0-2.5-0.1-3.8,0c-5.6,0.4-10.5,3.8-12.8,8.9c-2.4,5-1.9,11,1.3,15.5c1.9,2.7,4.5,4.7,7.6,5.7c1.4,0.5,2.9,0.8,4.4,0.8
	c0.7,0,1.4,0,2.2,0c18.6,0,7.4,0,26,0c1,0,1.9,0.8,1.9,1.9c0,3.9,0,4.4,0,8.4c0,1,0.8,1.9,1.9,1.9c3.3,0,6.6,0,9.9,0
	c1,0,1.9-0.8,1.9-1.9c0-3.9,0-4.4,0-8.4c0-1,0.8-1.9,1.9-1.9c4.5,0,9.1,0,13.6,0c1,0,1.9-0.8,1.9-1.9c0-9.1,0-18.2,0-27.3
	C75.9,16.6,75,15.8,74,15.8z M43,33.2c-19.1,0-8.4,0-27.5,0c-1,0-1.9-0.8-1.9-1.9c0-1,0.8-1.9,1.9-1.9c19.1,0,8.4,0,27.5,0
	c1,0,1.9,0.8,1.9,1.9C44.9,32.3,44,33.2,43,33.2z"/>
<path class="st0" d="M64.1,4.7c3.3,0,6.6,0,9.9,0c1,0,1.9-0.8,1.9-1.9C75.9,1.8,75,1,74,1c-4.5,0-9.1,0-13.6,0c-1,0-1.9,0.8-1.9,1.9
	c0,1.2,0,2.5,0,3.7c0,1-0.8,1.9-1.9,1.9c-3.2,0-6.5,0-9.7,0c-1,0-1.9,0.8-1.9,1.8c0,0.6,0.1,0.9,0.5,1.3c0.2,0.2,0.4,0.3,0.6,0.4
	c0.1,0,0.2,0.1,0.4,0.1c0.1,0,0.1,0,0.2,0c0,0,0.1,0,0.1,0c0,0,0.1-0.1,0.1,0c9.1,0,18.1,0,27.2,0c1,0,1.9-0.8,1.9-1.9
	c0-1-0.8-1.9-1.9-1.9c-3.3,0-6.6,0-9.9,0c-1,0-1.9-0.8-1.9-1.9C62.2,5.5,63.1,4.7,64.1,4.7z"/>
<g>
	<path class="st0" d="M152.8,62.6c-0.4,0-0.8-0.1-1.2-0.3c-0.8-0.4-1.2-1.2-1.2-2.1v-9.4c0-1.6,0.5-2.1,1.7-2.8l22.8-13.2
		c0.7-0.4,1.2-0.8,1.5-1.5c0.9-1.5,0.7-3.5-0.6-4.8c-0.4-0.4-0.9-0.7-1.4-1l-22.9-13.2c-0.8-0.4-1.2-1.2-1.2-2.1V2.5
		c0-0.9,0.5-1.7,1.2-2.1c0.8-0.4,1.7-0.4,2.4,0l32.5,18.7c4.4,2.5,7.1,7.2,7.1,12.2c0,5-2.7,9.7-7.1,12.2l-32.5,18.7
		C153.7,62.5,153.3,62.6,152.8,62.6z"/>
</g>
<path class="st0" d="M144.7,15.8c-3.3,0-6.6,0-9.9,0c-1,0-1.9,0.8-1.9,1.9c0,4.5,0,9.1,0,13.6c0,1-0.8,1.9-1.9,1.9
	c-1,0-1.9-0.8-1.9-1.9c0-4.5,0-9.1,0-13.6c0-1-0.8-1.9-1.9-1.9c-15.3,0-30.6,0-45.9,0c-1,0-1.9,0.8-1.9,1.9c0,3.3,0,6.6,0,9.9
	c0,1,0.8,1.9,1.9,1.9c10.7,0,21.5,0,32.2,0c1,0,1.9,0.8,1.9,1.9c0,1-0.8,1.9-1.9,1.9c-10.7,0-21.5,0-32.2,0c-1,0-1.9,0.8-1.9,1.9
	c0,3.3,0,6.6,0,9.9c0,1,0.8,1.9,1.9,1.9c21.1,0,42.2,0,63.2,0c1,0,1.9-0.8,1.9-1.9c0-9.1,0-18.2,0-27.3
	C146.5,16.6,145.7,15.8,144.7,15.8z"/>
<path class="st1" d="M152.6,43c6-3.5,12.1-7,18.1-10.5c1-0.5,1-1.9,0-2.5c-6-3.5-12.1-7-18.1-10.5c-1-0.5-2.1,0.1-2.1,1.2
	c0,3.5,0,7,0,10.5c0,3.5,0,7,0,10.5C150.5,42.9,151.7,43.6,152.6,43z"/>
<path class="st0" d="M146.5,60.6c0,0.9-0.8,1.7-1.7,1.7c-8.3,0-16.6,0-24.8,0c-0.9,0-1.7-0.8-1.7-1.7c0-2.4,0-6,0-8.4
	c0-0.9,0.8-1.7,1.7-1.7c8.3,0,16.6,0,24.8,0c0.9,0,1.7,0.8,1.7,1.7C146.5,54.6,146.5,58.2,146.5,60.6z"/>
</svg>
